# xmcd
#
# Track frame offsets: 
#        150
#        12112
#        25545
#        35347
#        44845
#        56065
#        68190
#        79345
#        90967
#        103570
#        113150
#        126875
#        136805
#        148650
#        161197
#        174000
#        184270
#        194580
#        207235
#        215517
#        226835
#        237377
#        247917
#        259625
#
# Disc length: 3599 seconds
#
# Revision: 1
# Processed by: cddbd v1.5.2PL0 Copyright (c) Steve Scherf et al.
# Submitted via: ExactAudioCopy v0.99pb4
#
DISCID=4b0e0d18
DTITLE=Various Artist - The Real Excello R&B
DYEAR=1994
DGENRE=R&B Compilation
TTITLE0=Slim Harpo - My Little Queen Bee (Got A Brand New King)
TTITLE1=Whispering Smith - I Tried So Hard
TTITLE2=Silas Hogan - I'm Goin' In The Valley
TTITLE3=Leon Austin - I'm So Glad
TTITLE4=Lonesome Sundown - I Had A Dream Last Night
TTITLE5=Lightnin' Slim - She's My Crazy Litte Baby
TTITLE6=Slim Harpo - I Need Money (Keep Your Alibis)
TTITLE7=Jimmy Anderson - Goin' Crazy Over TV
TTITLE8=Silas Hogan - Dark Clouds Rolling
TTITLE9=Lonesome Sundown - You're Playin' Hookey
TTITLE10=Slim Harpo - Still Rainin' In My Heart
TTITLE11=Earl Gaines - It's Love Baby (24 Hours A Day)
TTITLE12=Jimmy Anderson - Nothing In This World (Gonna Keep You From M
TTITLE12=e)
TTITLE13=Arthur Gunter - Baby Lets Play House
TTITLE14=Lightnin' Slim - Winter Time Blues
TTITLE15=Whispering Smith - Cryin' Blues
TTITLE16=Roscoe Shelton - Pleadin' For Love
TTITLE17=Lazy Lester - Whoa Now
TTITLE18=Charles Sheffield - It's Your Voodoo Working
TTITLE19=Jay Nelson - Rocka Me All Night Long
TTITLE20=Al Garner - Leavin' Tennessee
TTITLE21=Sweet Clifford - Baby Kiss Me Again
TTITLE22=Roscoe Shelton - Crazy Over You
TTITLE23=Charles Friday - Baby! I'm Stickin' To You
EXTD=
EXTT0=
EXTT1=
EXTT2=
EXTT3=
EXTT4=
EXTT5=
EXTT6=
EXTT7=
EXTT8=
EXTT9=
EXTT10=
EXTT11=
EXTT12=
EXTT13=
EXTT14=
EXTT15=
EXTT16=
EXTT17=
EXTT18=
EXTT19=
EXTT20=
EXTT21=
EXTT22=
EXTT23=
PLAYORDER=
